<svg width="381" height="316" viewBox="0 0 381 316" fill="none" xmlns="http://www.w3.org/2000/svg">
<path d="M127.5 85L169 0.5L174 3L198.5 7V10.5L201.5 32.5L224.5 0L232 7L241.5 31L260.5 0.5L264.5 7L272.5 16L285.5 0.5L289.5 3L282.5 34.5L283.5 40.5L305 0.5L309 3H336.5L337.5 11L346 0.5L350.5 3H374V9.5L380.5 12L368.5 43.5V72V72.5L359.5 87.5H367L369 158L329.5 242L306 212.5L230.5 283.5L215 240L129 315.5L120.5 234.5L55.5 279L51 226.5L0 255.5L74.5 86L76.5 87H84.5V101.5L99.5 86L101 88H108.5L96.5 120L99 126L121 85.5L125.5 88L127.5 85Z" fill="#C86176"/>
<path d="M203.5 157.5V85.5H227C234.5 85.5 237.5 90.5001 237.5 95.5001V117.5C237.5 118.5 234 121.5 231 121.5C234.5 121.5 237.5 125 237.5 126.5V148.5C237.5 152.5 233.5 157.5 228 157.5H203.5Z" fill="#EB99B0"/>
<path d="M246.5 157V85H270C277.5 85 280.5 90.0001 280.5 95.0001V117C280.5 118 277.5 121 274.5 121C278 121 280.5 124.5 280.5 126V148C280.5 152 276.5 157 271 157H246.5Z" fill="#EB99B0"/>
<path d="M215.5 115.5V97H223C224.657 97 226 98.3431 226 100V112V112.5C226 114.157 224.657 115.5 223 115.5H215.5Z" fill="#C86176"/>
<path d="M258.5 115V96.5H266C267.657 96.5 269 97.8431 269 99.5V111.5V112C269 113.657 267.657 115 266 115H258.5Z" fill="#C86176"/>
<path d="M215.5 145.5V127.5H223C224.657 127.5 226 128.843 226 130.5V142V142.5C226 144.157 224.657 145.5 223 145.5H215.5Z" fill="#C86176"/>
<path d="M258.5 145V127H266C267.657 127 269 128.343 269 130V141.5V142C269 143.657 267.657 145 266 145H258.5Z" fill="#C86176"/>
<path d="M332.5 158V85.5V85H343.5L357 125H358V85.5H369V158H358L345 119.5L344 118V158H332.5Z" fill="#EB99B0"/>
<path d="M260.5 73V0.5H272V29.5L285.5 0.5H298L283 34.5L299.5 73H288L275.5 45L272 50V73H260.5Z" fill="#EB99B0"/>
<path d="M74.5 158.5V86H86V115L99.5 86H112L97 120L113.5 158.5H102L89.5 130.5L86 135.5V158.5H74.5Z" fill="#EB99B0"/>
<path d="M305 72V0.5H339V12H316V30.5H334V42.5H316V60.5H339V72H305Z" fill="#EB99B0"/>
<path d="M289.5 158V85H323.5V96.7413H300.5V115.629H318.5V127.881H300.5V146.259H323.5V158H289.5Z" fill="#EB99B0"/>
<path d="M346 12V0.5H380.5V12H369.5V72.5H358V12H346Z" fill="#EB99B0"/>
<path d="M121 158V85.5H132.5V146H154.5V158H121Z" fill="#EB99B0"/>
<path d="M160.5 148.157V85H172V141.612C172 143.599 172.5 145.585 174.5 145.585H180.5C183 145.585 183 143.599 183 141.612V85H194.5V148.068C194.5 152.919 191.113 155.807 188.156 157.154C186.463 157.925 184.565 158 182.705 158H178H171.435C170.813 158 170.188 157.959 169.578 157.833C163.463 156.569 161.455 152.927 160.805 150.922C160.517 150.034 160.5 149.091 160.5 148.157Z" fill="#EB99B0"/>
<path d="M208.5 72.5L224.5 0H238.5L252.5 72.5H241.5L238.5 58H223L221 72.5H208.5Z" fill="#EB99B0"/>
<path d="M225.5 47.5L231 17.5L236.5 47.5H225.5Z" fill="#C86176"/>
<path d="M169 72.5V0.500108C177.5 1.84774e-06 193.5 0.500066 195.5 0.500066C197.171 0.500066 199.887 2.24409 201.903 5.44095C202.724 6.74293 203 8.29521 203 9.83431V24.5V41.5C203 42 199.5 46 197.5 46.5L204 72.5H199H192.5L186.5 48.5001H180V72.5H169Z" fill="#EB99B0"/>
<path d="M180.5 36V12H190.5C191.752 12 192.5 12.7593 192.5 14V34C192.5 34.4 192 35.5 191 36H180.5Z" fill="#C86176"/>
</svg>
